<svg width="64" height="64" viewBox="0 0 64 64" fill="none" xmlns="http://www.w3.org/2000/svg">
<g clip-path="url(#clip0_5_127)">
<path d="M48 10.6666H45.3333V7.99998C45.3333 7.29274 45.0524 6.61446 44.5523 6.11436C44.0522 5.61426 43.3739 5.33331 42.6667 5.33331C41.9594 5.33331 41.2811 5.61426 40.7811 6.11436C40.281 6.61446 40 7.29274 40 7.99998V10.6666H24V7.99998C24 7.29274 23.719 6.61446 23.219 6.11436C22.7189 5.61426 22.0406 5.33331 21.3333 5.33331C20.6261 5.33331 19.9478 5.61426 19.4477 6.11436C18.9476 6.61446 18.6667 7.29274 18.6667 7.99998V10.6666H16C13.8783 10.6666 11.8434 11.5095 10.3431 13.0098C8.84285 14.5101 8 16.5449 8 18.6666V50.6666C8 52.7884 8.84285 54.8232 10.3431 56.3235C11.8434 57.8238 13.8783 58.6666 16 58.6666H48C50.1217 58.6666 52.1566 57.8238 53.6569 56.3235C55.1571 54.8232 56 52.7884 56 50.6666V18.6666C56 16.5449 55.1571 14.5101 53.6569 13.0098C52.1566 11.5095 50.1217 10.6666 48 10.6666ZM16 16H18.6667V18.6666C18.6667 19.3739 18.9476 20.0522 19.4477 20.5523C19.9478 21.0524 20.6261 21.3333 21.3333 21.3333C22.0406 21.3333 22.7189 21.0524 23.219 20.5523C23.719 20.0522 24 19.3739 24 18.6666V16H40V18.6666C40 19.3739 40.281 20.0522 40.7811 20.5523C41.2811 21.0524 41.9594 21.3333 42.6667 21.3333C43.3739 21.3333 44.0522 21.0524 44.5523 20.5523C45.0524 20.0522 45.3333 19.3739 45.3333 18.6666V16H48C48.7072 16 49.3855 16.2809 49.8856 16.781C50.3857 17.2811 50.6667 17.9594 50.6667 18.6666V29.3333H13.3333V18.6666C13.3333 17.9594 13.6143 17.2811 14.1144 16.781C14.6145 16.2809 15.2928 16 16 16ZM48 53.3333H16C15.2928 53.3333 14.6145 53.0524 14.1144 52.5523C13.6143 52.0522 13.3333 51.3739 13.3333 50.6666V34.6666H50.6667V50.6666C50.6667 51.3739 50.3857 52.0522 49.8856 52.5523C49.3855 53.0524 48.7072 53.3333 48 53.3333Z" fill="black"/>
<path d="M21.3333 45.3333C22.8061 45.3333 24 44.1394 24 42.6667C24 41.1939 22.8061 40 21.3333 40C19.8606 40 18.6667 41.1939 18.6667 42.6667C18.6667 44.1394 19.8606 45.3333 21.3333 45.3333Z" fill="black"/>
<path d="M42.6667 40H32C31.2928 40 30.6145 40.281 30.1144 40.781C29.6143 41.2811 29.3333 41.9594 29.3333 42.6667C29.3333 43.3739 29.6143 44.0522 30.1144 44.5523C30.6145 45.0524 31.2928 45.3333 32 45.3333H42.6667C43.3739 45.3333 44.0522 45.0524 44.5523 44.5523C45.0524 44.0522 45.3333 43.3739 45.3333 42.6667C45.3333 41.9594 45.0524 41.2811 44.5523 40.781C44.0522 40.281 43.3739 40 42.6667 40Z" fill="black"/>
</g>
<defs>
<clipPath id="clip0_5_127">
<rect width="64" height="64" fill="white"/>
</clipPath>
</defs>
</svg>
