<svg width="64" height="64" viewBox="0 0 64 64" fill="none" xmlns="http://www.w3.org/2000/svg">
<path d="M34.6667 58.6667H24C23.2928 58.6667 22.6145 58.3857 22.1144 57.8856C21.6143 57.3855 21.3333 56.7072 21.3333 56V39.4667H16C15.2928 39.4667 14.6145 39.1857 14.1144 38.6856C13.6143 38.1855 13.3333 37.5072 13.3333 36.8V27.2C13.3333 26.4928 13.6143 25.8145 14.1144 25.3144C14.6145 24.8143 15.2928 24.5333 16 24.5333H21.3333V20C21.5202 15.9369 23.3083 12.1132 26.3066 9.36477C29.3049 6.61636 33.2694 5.16691 37.3333 5.33333H45.3333C46.0406 5.33333 46.7189 5.61429 47.2189 6.11438C47.719 6.61448 48 7.29276 48 8V17.6C48 18.3072 47.719 18.9855 47.2189 19.4856C46.7189 19.9857 46.0406 20.2667 45.3333 20.2667H37.3333V24.5333H45.3333C45.7451 24.5302 46.152 24.6225 46.5221 24.8029C46.8922 24.9834 47.2155 25.247 47.4667 25.5733C47.7151 25.9045 47.8829 26.289 47.957 26.6963C48.031 27.1036 48.0092 27.5226 47.8933 27.92L45.2267 37.52C45.0654 38.0968 44.7146 38.6025 44.2308 38.9557C43.7471 39.3088 43.1585 39.4888 42.56 39.4667H37.3333V56C37.3333 56.7072 37.0524 57.3855 36.5523 57.8856C36.0522 58.3857 35.3739 58.6667 34.6667 58.6667ZM26.6667 53.3333H32V36.8C32 36.0928 32.2809 35.4145 32.781 34.9144C33.2811 34.4143 33.9594 34.1333 34.6667 34.1333H40.64L41.8133 29.8667H34.6667C33.9594 29.8667 33.2811 29.5857 32.781 29.0856C32.2809 28.5855 32 27.9072 32 27.2V20C32.0685 18.6322 32.6605 17.3432 33.6533 16.4C34.6462 15.4568 35.9639 14.9316 37.3333 14.9333H42.6667V10.6667H37.3333C34.6848 10.5053 32.0795 11.3948 30.0826 13.142C28.0857 14.8893 26.8583 17.3535 26.6667 20V27.2C26.6667 27.9072 26.3857 28.5855 25.8856 29.0856C25.3855 29.5857 24.7072 29.8667 24 29.8667H18.6667V34.1333H24C24.7072 34.1333 25.3855 34.4143 25.8856 34.9144C26.3857 35.4145 26.6667 36.0928 26.6667 36.8V53.3333Z" fill="black"/>
</svg>
