<svg width="64" height="64" viewBox="0 0 64 64" fill="none" xmlns="http://www.w3.org/2000/svg">
<g clip-path="url(#clip0_5_122)">
<path d="M34.6667 21.3333C36.7884 21.3333 38.8232 22.1762 40.3235 23.6765C41.8238 25.1768 42.6667 27.2116 42.6667 29.3333C42.6667 30.0406 42.9476 30.7189 43.4477 31.219C43.9478 31.719 44.6261 32 45.3333 32C46.0406 32 46.7189 31.719 47.219 31.219C47.7191 30.7189 48 30.0406 48 29.3333C48 25.7971 46.5952 22.4057 44.0948 19.9052C41.5943 17.4048 38.2029 16 34.6667 16C33.9594 16 33.2811 16.281 32.781 16.781C32.281 17.2811 32 17.9594 32 18.6667C32 19.3739 32.281 20.0522 32.781 20.5523C33.2811 21.0524 33.9594 21.3333 34.6667 21.3333Z" fill="black"/>
<path d="M34.6667 10.6666C39.6174 10.6666 44.3653 12.6333 47.866 16.134C51.3667 19.6347 53.3333 24.3826 53.3333 29.3333C53.3333 30.0406 53.6143 30.7188 54.1144 31.2189C54.6145 31.719 55.2928 32 56 32C56.7072 32 57.3855 31.719 57.8856 31.2189C58.3857 30.7188 58.6667 30.0406 58.6667 29.3333C58.6667 22.9681 56.1381 16.8636 51.6372 12.3627C47.1364 7.86188 41.0319 5.33331 34.6667 5.33331C33.9594 5.33331 33.2811 5.61426 32.781 6.11436C32.281 6.61446 32 7.29274 32 7.99998C32 8.70722 32.281 9.3855 32.781 9.8856C33.2811 10.3857 33.9594 10.6666 34.6667 10.6666Z" fill="black"/>
<path d="M58 42.4266C57.8533 41.9986 57.6001 41.6148 57.2642 41.3116C56.9283 41.0084 56.5208 40.7956 56.08 40.6933L40.08 37.04C39.6457 36.9415 39.1937 36.9534 38.7651 37.0745C38.3366 37.1956 37.9452 37.4221 37.6267 37.7333C37.2533 38.08 37.2267 38.1066 35.4933 41.4133C29.7419 38.7631 25.1333 34.1356 22.5067 28.3733C25.8933 26.6666 25.92 26.6666 26.2667 26.2666C26.5779 25.9481 26.8044 25.5567 26.9255 25.1282C27.0466 24.6997 27.0585 24.2476 26.96 23.8133L23.3067 7.99998C23.2044 7.55917 22.9916 7.15164 22.6884 6.81574C22.3852 6.47985 22.0014 6.22665 21.5733 6.07998C20.9506 5.85755 20.3075 5.69678 19.6533 5.59998C18.9793 5.4437 18.2916 5.35438 17.6 5.33331C14.3467 5.33331 11.2266 6.62569 8.92616 8.92614C6.62571 11.2266 5.33333 14.3467 5.33333 17.6C5.34745 28.4872 9.67863 38.9245 17.3771 46.6229C25.0755 54.3213 35.5128 58.6525 46.4 58.6666C48.0109 58.6666 49.606 58.3494 51.0943 57.7329C52.5825 57.1164 53.9348 56.2129 55.0738 55.0738C56.2129 53.9348 57.1165 52.5825 57.7329 51.0942C58.3494 49.606 58.6667 48.0109 58.6667 46.4C58.6675 45.7212 58.614 45.0435 58.5067 44.3733C58.3946 43.7109 58.2251 43.0596 58 42.4266ZM46.4 53.3333C36.9251 53.3263 27.8403 49.5592 21.1405 42.8595C14.4408 36.1597 10.6737 27.0749 10.6667 17.6C10.6737 15.7633 11.4064 14.0039 12.7052 12.7051C14.0039 11.4064 15.7633 10.6737 17.6 10.6666H18.48L21.3333 23.04L19.8933 23.7866C17.6 24.9866 15.7867 25.9466 16.7467 28.0266C18.3099 32.4522 20.8394 36.4739 24.1513 39.7997C27.4632 43.1254 31.4743 45.6716 35.8933 47.2533C38.1333 48.16 39.0133 46.48 40.2133 44.16L40.9867 42.6933L53.3333 45.52V46.4C53.3263 48.2367 52.5936 49.9961 51.2948 51.2948C49.9961 52.5936 48.2367 53.3263 46.4 53.3333Z" fill="black"/>
</g>
<defs>
<clipPath id="clip0_5_122">
<rect width="64" height="64" fill="white"/>
</clipPath>
</defs>
</svg>
