<svg width="64" height="64" viewBox="0 0 64 64" fill="none" xmlns="http://www.w3.org/2000/svg">
<g clip-path="url(#clip0_5_210)">
<path d="M50.8533 13.1466C46.4779 8.74265 40.703 6.00321 34.5243 5.40062C28.3456 4.79803 22.1503 6.37005 17.0064 9.84566C11.8625 13.3213 8.09237 18.4827 6.34604 24.44C4.59972 30.3974 4.9866 36.7773 7.44 42.48C7.69571 43.01 7.77961 43.6066 7.68 44.1866L5.33334 55.4666C5.24293 55.8991 5.26139 56.3473 5.38706 56.7709C5.51274 57.1944 5.74169 57.5801 6.05334 57.8933C6.30881 58.1469 6.613 58.3462 6.94756 58.4791C7.28212 58.612 7.64013 58.6758 8 58.6666H8.53334L19.9467 56.3733C20.5267 56.3036 21.115 56.3863 21.6533 56.6133C27.356 59.0667 33.736 59.4536 39.6933 57.7073C45.6507 55.9609 50.812 52.1908 54.2877 47.0469C57.7633 41.903 59.3353 35.7077 58.7327 29.529C58.1301 23.3503 55.3907 17.5754 50.9867 13.2L50.8533 13.1466ZM53.0667 35.44C52.5453 38.6239 51.3085 41.6482 49.4495 44.2851C47.5904 46.922 45.1575 49.1028 42.3337 50.6636C39.51 52.2243 36.3691 53.1243 33.1473 53.2957C29.9255 53.4672 26.7067 52.9056 23.7333 51.6533C22.6788 51.2048 21.546 50.9691 20.4 50.96C19.8994 50.9635 19.4 51.0081 18.9067 51.0933L11.3867 52.6133L12.9067 45.0933C13.2094 43.4647 13.0142 41.7827 12.3467 40.2666C11.0944 37.2932 10.5328 34.0745 10.7042 30.8527C10.8757 27.6309 11.7756 24.49 13.3364 21.6662C14.8971 18.8425 17.078 16.4096 19.7149 14.5505C22.3518 12.6914 25.3761 11.4547 28.56 10.9333C31.9021 10.3848 35.3267 10.6399 38.5506 11.6775C41.7745 12.715 44.7051 14.5053 47.0999 16.9001C49.4947 19.2949 51.2849 22.2254 52.3225 25.4494C53.3601 28.6733 53.6152 32.0979 53.0667 35.44Z" fill="black"/>
</g>
<g clip-path="url(#clip1_5_210)">
<path d="M45 37.2133C44.9267 36.9992 44.8001 36.8074 44.6321 36.6558C44.4642 36.5042 44.2604 36.3978 44.04 36.3466L36.04 34.52C35.8228 34.4707 35.5968 34.4767 35.3826 34.5372C35.1683 34.5978 34.9726 34.711 34.8133 34.8666C34.6267 35.04 34.6133 35.0533 33.7467 36.7066C30.8709 35.3815 28.5667 33.0678 27.2533 30.1866C28.9467 29.3333 28.96 29.3333 29.1333 29.1333C29.2889 28.974 29.4022 28.7783 29.4627 28.5641C29.5233 28.3498 29.5292 28.1238 29.48 27.9066L27.6533 20C27.6022 19.7796 27.4958 19.5758 27.3442 19.4078C27.1926 19.2399 27.0007 19.1133 26.7867 19.04C26.4753 18.9287 26.1537 18.8484 25.8267 18.8C25.4897 18.7218 25.1458 18.6772 24.8 18.6666C23.1733 18.6666 21.6133 19.3128 20.4631 20.463C19.3129 21.6133 18.6667 23.1733 18.6667 24.8C18.6737 30.2436 20.8393 35.4622 24.6885 39.3114C28.5378 43.1606 33.7564 45.3262 39.2 45.3333C40.0054 45.3333 40.803 45.1746 41.5471 44.8664C42.2913 44.5582 42.9674 44.1064 43.5369 43.5369C44.1065 42.9673 44.5582 42.2912 44.8665 41.5471C45.1747 40.803 45.3333 40.0054 45.3333 39.2C45.3337 38.8606 45.307 38.5217 45.2533 38.1866C45.1973 37.8554 45.1125 37.5298 45 37.2133ZM39.2 42.6666C34.4625 42.6631 29.9201 40.7796 26.5703 37.4297C23.2204 34.0798 21.3369 29.5374 21.3333 24.8C21.3368 23.8816 21.7032 23.0019 22.3526 22.3525C23.0019 21.7032 23.8817 21.3368 24.8 21.3333H25.24L26.6667 27.52L25.9467 27.8933C24.8 28.4933 23.8933 28.9733 24.3733 30.0133C25.155 32.2261 26.4197 34.2369 28.0756 35.8998C29.7316 37.5627 31.7372 38.8358 33.9467 39.6266C35.0667 40.08 35.5067 39.24 36.1067 38.08L36.4933 37.3466L42.6667 38.76V39.2C42.6632 40.1183 42.2968 40.998 41.6474 41.6474C40.9981 42.2967 40.1183 42.6631 39.2 42.6666Z" fill="black"/>
</g>
<defs>
<clipPath id="clip0_5_210">
<rect width="64" height="64" fill="white"/>
</clipPath>
<clipPath id="clip1_5_210">
<rect width="32" height="32" fill="white" transform="translate(16 16)"/>
</clipPath>
</defs>
</svg>
