<svg width="136" height="32" viewBox="0 0 136 32" fill="none" xmlns="http://www.w3.org/2000/svg">
<path d="M25.9852 11.8412L25.4194 14.1985L25.8214 14.3523C26.0348 13.9206 26.273 13.5037 26.4517 13.0571C28.3078 8.3722 31.7966 5.45905 36.5162 4.02977C42.6055 2.20346 48.005 6.4516 48.4368 13.3151C48.4864 14.1439 48.4368 14.9777 48.4368 15.7965C51.5881 15.6973 51.9504 15.33 52.2929 12.6253C52.6105 10.1439 53.6725 8.07443 56.1589 7.09677C58.6452 6.1191 60.68 7.03721 62.5112 8.63026C65.2953 11.0571 66.4814 15.7171 65.3301 19.1811C63.8412 23.5285 59.5336 24.8387 56.0298 21.9156C54.9281 20.9975 54.0844 19.7667 52.9479 18.4814C43.3102 21.6973 33.4095 24.0744 23.5981 17.7171C21.9107 19.8511 19.8512 20.402 17.4145 18.5608C17.0025 20.4615 16.7693 22.1786 16.2532 23.8015C14.4517 29.4392 8.80899 32.0595 4.03976 29.5633C0.640257 27.7866 -0.42674 25.1861 1.06209 21.6675C2.31271 24.7196 4.5013 26.0893 7.65266 25.9255C11.7767 25.7171 13.4492 24.2729 14.01 19.6724C14.3053 17.0339 14.3053 14.3706 14.01 11.732C13.881 10.4863 12.8487 9.32505 12.2482 8.17369C15.3648 7.98014 16.3326 8.66997 17.211 11.6476C17.3817 12.4633 17.6905 13.2437 18.1241 13.9553C19.5683 15.9107 21.5981 15.5335 23.4293 13.067C24.0844 12.2184 24.4814 10.8883 25.9852 11.8412ZM28.402 15.6129C33.1215 17.297 38.176 17.8246 43.1415 17.1514C43.3936 17.1182 43.6358 17.0321 43.8522 16.8987C44.0686 16.7652 44.2543 16.5875 44.3971 16.3772C44.7607 15.4998 44.9065 14.5474 44.8219 13.6015C44.7373 12.6555 44.4248 11.7441 43.9112 10.9452C43.3977 10.1464 42.6982 9.48373 41.8728 9.01403C41.0473 8.54433 40.1204 8.28154 39.1713 8.24813C34.7494 8.16873 30.2829 11.1464 28.402 15.6129ZM56.005 13.8511C56.6502 15.4243 56.938 16.6898 57.6427 17.6427C58.139 18.3176 59.3747 19.0769 59.9802 18.8784C60.4295 18.6716 60.825 18.3638 61.1357 17.979C61.4465 17.5942 61.6642 17.1428 61.7718 16.66C61.873 15.4251 61.6685 14.1842 61.1762 13.0471C60.68 11.727 59.6527 10.2878 58.0894 10.9479C57.1316 11.3499 56.6601 12.8536 56.005 13.8511Z" fill="black"/>
<path d="M92.6998 5.42432C90.9926 7.24566 88.8785 7.21092 86.7197 6.82383C84.5608 6.43673 82.4914 5.95534 80.3723 5.54343C77.8115 5.04715 75.8412 5.9206 74.5311 8.1737C76.2929 9.00248 78.005 10.005 77.2953 12.3524C77.1398 12.7145 76.9002 13.0344 76.5964 13.2856C76.2926 13.5367 75.9334 13.7119 75.5484 13.7965C73.3003 13.8809 72.8884 12 72.4814 10.2878C69.0422 11.6427 68.1589 16.4417 70.7693 19.4094C71.6934 20.5148 72.8767 21.3743 74.2137 21.9112C75.5508 22.448 76.9999 22.6456 78.4318 22.4864C83.1713 22.0496 85.7271 17.072 83.7668 12.1439C83.3896 11.201 82.8388 10.3275 82.2383 9.16626C84.9132 9.77172 86.5162 11.1514 87.201 13.5831C87.9455 16.1092 89.2457 17.1712 90.809 16.5608C92.268 15.9802 92.8437 13.5137 91.9653 11.5633C91.8015 11.206 91.5931 10.8685 91.3053 10.3375C93.4293 10.4218 94.2829 11.7767 94.7792 13.2903C95.1588 14.2784 95.2283 15.3587 94.9782 16.3872C94.7282 17.4158 94.1706 18.3436 93.3797 19.0471C91.345 20.9628 89.4095 19.8114 87.2804 18.7196C86.9827 19.4342 86.7544 20.0645 86.4616 20.6601C84.5757 24.5161 81.3251 26.2779 77.1911 26.3325C73.0571 26.3871 69.7072 24.4814 67.9901 20.6203C67.2106 18.9994 66.9477 17.1782 67.237 15.403C67.5264 13.6278 68.354 11.9843 69.608 10.6948C71.4961 8.69611 73.5172 6.82749 75.6576 5.10174C76.414 4.4607 77.3214 4.02312 78.294 3.83034C79.2665 3.63756 80.2722 3.69596 81.2159 4C82.7594 4.42184 84.3326 4.78412 85.8263 5.33995C88.1241 6.19355 90.3723 6.53598 92.6998 5.42432ZM73.9653 9.64268C73.4194 10.9876 73.8909 11.8958 75.0422 12.3821C75.3152 12.4963 76.2234 11.9802 76.2333 11.7221C76.3077 10.2432 75.3152 9.77668 73.9653 9.64268Z" fill="black"/>
<path d="M93.2259 5.94545e-06C96.5807 -0.0446591 97.6924 0.694795 98.6849 4.06452C100.754 11.0124 101.132 18.0149 99.2308 25.0769C98.5063 27.7568 97.077 28.9975 94.4616 29.34C98.3723 19.3945 97.4641 9.62283 93.2259 5.94545e-06Z" fill="black"/>
<path d="M81.3946 16.4367C80.0695 17.4789 79.2308 18.6303 78.5559 18.541C77.8809 18.4516 76.9281 17.2655 76.7097 16.402C76.6234 16.1338 76.6082 15.8478 76.6655 15.572C76.7229 15.2961 76.8508 15.0399 77.0369 14.8283C77.2229 14.6167 77.4607 14.4571 77.727 14.365C77.9932 14.2728 78.2789 14.2514 78.5559 14.3027C79.3896 14.4318 80.0943 15.4144 81.3946 16.4367Z" fill="black"/>
<path d="M91.4393 22.6402C90.3326 23.4888 89.5832 24.4963 88.9579 24.4219C88.3326 24.3474 87.1663 23.1762 87.2507 22.6353C87.3785 22.1891 87.6108 21.7799 87.9284 21.4416C88.2461 21.1032 88.6398 20.8455 89.077 20.6898C89.5683 20.5658 90.3772 21.7122 91.4393 22.6402Z" fill="black"/>
<path d="M127.335 1.5881H119.891L119.926 4.06949H129.787L131.772 6.0546H119.861V8.50125H134.253L135.509 9.99008H117.911V0.0942993H125.851L127.335 1.5881Z" fill="black"/>
<path d="M113.4 29.0174H120.844L120.809 26.536H110.953L108.943 24.5509H120.854V22.1092H106.462L105.206 20.6204H122.804V30.5459H114.864L113.4 29.0174Z" fill="black"/>
<path d="M106.655 8.33748V15.7817L109.137 15.7469V5.89083L111.122 3.90572V15.8164H113.568V1.42433L115.062 0.163788V17.7618H105.137V9.82136L106.655 8.33748Z" fill="black"/>
<path d="M134.084 22.273V14.8288L131.603 14.8635V24.7147L129.618 26.7295V14.8189H127.171V29.2109L125.658 30.4665V12.8437H135.583V20.7841L134.084 22.273Z" fill="black"/>
<path d="M117.653 12.933V12.4715H118.263V13.062H118.204L117.653 12.933ZM118.263 17.5434V18.134H117.653V17.6725L118.204 17.5434H118.263ZM117.945 15.1414C117.945 14.2531 117.945 13.3598 117.945 12.4715H118.61C118.61 13.34 118.61 14.2382 118.61 15.1414V15.4293C118.61 16.3524 118.61 17.2457 118.61 18.134H117.945C117.945 17.2655 117.945 16.3672 117.945 15.464V15.1414ZM119.191 12.4715L119.469 12.9677H118.263V12.4715H119.598L119.623 13.9603H119.305L119.191 12.4715ZM119.102 15.4491H118.263V14.9529H119.102V15.4491ZM119.702 16.6352L119.672 18.1241H118.263V17.6278H119.529L119.256 18.1241L119.37 16.6352H119.702ZM118.988 15.0918L119.042 14.263H119.266V16.1191H119.032L118.978 15.2506L118.988 15.0918Z" fill="black"/>
<path d="M119.861 17.6725L120.308 17.5434H120.417L120.794 17.6725V18.134H119.861V17.6725ZM119.896 12.4715H120.442V13.062H120.377L119.881 12.933L119.896 12.4715ZM120.233 12.4715H120.447L120.476 15.4491V18.1241H120.233V12.4715ZM120.233 12.4715H120.883L121.568 16.665H121.439L122.089 12.4715H122.342L121.459 18.134H121.166L120.233 12.4715ZM121.851 17.6725L122.347 17.5434H122.521L123.077 17.6725V18.134H121.861L121.851 17.6725ZM122.134 15.6427V12.4715H122.769C122.769 13.3548 122.769 14.2481 122.769 15.1414V15.464C122.769 16.3623 122.769 17.2605 122.769 18.134H122.109C122.154 17.2506 122.149 16.3772 122.154 15.6427H122.134ZM122.452 12.4715H123.052V12.933L122.511 13.062H122.452V12.4715Z" fill="black"/>
<path d="M19.5782 31.9206V26.4615H22.809V27.1166H20.2979V28.8338H22.3574V29.4789H20.2979V31.2655H22.809V31.9256L19.5782 31.9206Z" fill="black"/>
<path d="M25.206 31.9206V26.4615H27.1316C27.424 26.453 27.7153 26.5002 27.9901 26.6005C28.2102 26.6914 28.3961 26.8495 28.5211 27.0521C28.6523 27.294 28.7174 27.5662 28.7097 27.8412C28.7142 28.039 28.6891 28.2364 28.6353 28.4268C28.5926 28.5741 28.52 28.711 28.4219 28.8288C28.3262 28.9428 28.2079 29.0357 28.0745 29.1017C28.222 29.1566 28.3596 29.2354 28.4814 29.335C28.6073 29.4427 28.703 29.5812 28.7593 29.737C28.8354 29.9433 28.8708 30.1624 28.8636 30.3821C28.8705 30.6323 28.8301 30.8815 28.7445 31.1166C28.6775 31.3005 28.5627 31.4633 28.412 31.5881C28.2647 31.7041 28.0961 31.7901 27.9157 31.8412C27.6968 31.8968 27.4715 31.9235 27.2457 31.9206H25.206ZM25.9206 28.8338H27.1415C27.3125 28.841 27.4827 28.8069 27.6378 28.7345C27.7613 28.6685 27.8578 28.5614 27.9107 28.4318C27.9714 28.2736 28.0001 28.1049 27.9951 27.9355C28.0057 27.819 27.9913 27.7016 27.9528 27.5912C27.9143 27.4808 27.8525 27.3799 27.7718 27.2953C27.5792 27.1472 27.3391 27.0748 27.0968 27.0918H25.9206V28.8338ZM25.9206 31.3151H27.1762C27.3454 31.3169 27.5134 31.2884 27.6725 31.2308C27.8134 31.1764 27.931 31.0746 28.005 30.9429C28.096 30.7652 28.1388 30.5667 28.1291 30.3673C28.1363 30.2037 28.1004 30.0411 28.0249 29.8958C27.9676 29.7842 27.8799 29.6913 27.7718 29.6278C27.6734 29.5657 27.5638 29.5236 27.4492 29.5037C27.3445 29.4829 27.2382 29.4713 27.1316 29.469H25.9206V31.3151Z" fill="black"/>
<path d="M31.2854 31.9206V26.4616H32.4665L34.3177 31.0819H34.4715V26.4516H35.1861V31.9107H34.0298L32.144 27.2953H32.005V31.9256L31.2854 31.9206Z" fill="black"/>
<path d="M40.9777 31.9206V26.4616H42.2184L43.5385 30.7692L44.8537 26.4367H46.1043V31.8958H45.3847V27.3251H45.2805L43.9107 31.7618H43.1663L41.8065 27.3499H41.6924V31.9454L40.9777 31.9206Z" fill="black"/>
<path d="M48.3276 31.9206L49.7122 26.4615H51.1365L52.5211 31.9206H51.7966L51.4591 30.6104H49.3797L49.0571 31.9206H48.3276ZM49.5236 29.9603H51.3251L50.6055 27.0869H50.2432L49.5236 29.9603Z" fill="black"/>
<path d="M56.1738 32C56.015 32 55.8313 31.9901 55.6229 31.9702L55.0125 31.8908L54.5162 31.8114L54.5758 31.1911L55.072 31.2506L55.6527 31.3102C55.8413 31.3102 56.005 31.3102 56.149 31.3102C56.3432 31.3154 56.5363 31.2781 56.7147 31.201C56.8604 31.1346 56.9793 31.0209 57.0522 30.8784C57.1341 30.7049 57.1732 30.5143 57.1663 30.3226C57.1739 30.1685 57.1378 30.0154 57.0621 29.8809C56.9796 29.7615 56.8615 29.6712 56.7246 29.6228C56.517 29.5392 56.3006 29.4793 56.0795 29.4442C55.837 29.3925 55.5982 29.3245 55.3648 29.2407C55.1843 29.1712 55.0166 29.0723 54.8686 28.9479C54.7349 28.83 54.634 28.6796 54.5758 28.5112C54.5071 28.2998 54.4752 28.0782 54.4815 27.8561C54.4666 27.5447 54.5388 27.2354 54.6899 26.9628C54.8241 26.7365 55.0303 26.5618 55.2755 26.4665C55.5646 26.3603 55.8708 26.3081 56.1787 26.3127C56.3326 26.3127 56.5063 26.3127 56.7048 26.3424C56.9033 26.3722 57.0968 26.3821 57.2854 26.4119C57.474 26.4417 57.6428 26.4615 57.7817 26.4913L57.7271 27.1166L57.2308 27.0571L56.675 27.0074C56.5312 26.9994 56.3871 26.9994 56.2433 27.0074C56.0496 27.0026 55.8565 27.0311 55.6725 27.0918C55.5333 27.1409 55.4134 27.233 55.3301 27.3548C55.246 27.49 55.2045 27.6474 55.211 27.8064C55.1986 27.9796 55.2384 28.1524 55.3251 28.3027C55.4189 28.4269 55.549 28.5188 55.6973 28.5658C55.871 28.6303 56.0993 28.6948 56.3872 28.7692C56.6214 28.8237 56.8518 28.8933 57.077 28.9777C57.2577 29.0399 57.4258 29.134 57.5733 29.2556C57.6993 29.3662 57.7935 29.5084 57.8462 29.6675C57.9112 29.8676 57.9415 30.0775 57.9356 30.2878C57.9532 30.6312 57.8814 30.9732 57.7271 31.2804C57.5988 31.5242 57.3927 31.718 57.1415 31.8313C56.8359 31.9601 56.505 32.0178 56.1738 32Z" fill="black"/>
<path d="M60.268 31.9206V26.4615H62.2085C62.5349 26.4498 62.86 26.5091 63.1613 26.6352C63.409 26.7456 63.6108 26.9386 63.7321 27.1811C63.8711 27.4929 63.9357 27.8327 63.9206 28.1737C63.9285 28.5173 63.8536 28.8577 63.7023 29.1662C63.5572 29.4407 63.3119 29.6487 63.0174 29.7469L63.9603 31.9305H63.1713L62.3276 29.9156H60.9678V31.9305L60.268 31.9206ZM60.9678 29.2804H62.2035C62.4038 29.2894 62.6022 29.2394 62.7742 29.1365C62.9167 29.0439 63.0234 28.9056 63.077 28.7444C63.1387 28.5623 63.1689 28.3709 63.1663 28.1787C63.1882 27.8944 63.1053 27.6119 62.933 27.3846C62.8363 27.2897 62.72 27.217 62.5923 27.1716C62.4646 27.1261 62.3286 27.1091 62.1936 27.1216H60.9678V29.2804Z" fill="black"/>
</svg>
