<svg width="21" height="20" viewBox="0 0 21 20" fill="none" xmlns="http://www.w3.org/2000/svg">
<path d="M20.3281 13.91C20.2731 13.7495 20.1782 13.6056 20.0522 13.4919C19.9263 13.3781 19.7734 13.2984 19.6081 13.26L13.6081 11.89C13.4453 11.8531 13.2757 11.8575 13.115 11.9029C12.9543 11.9484 12.8076 12.0333 12.6881 12.15C12.5481 12.28 12.5381 12.29 11.8881 13.53C9.73132 12.5362 8.00312 10.8009 7.01812 8.64C8.28812 8 8.29813 8 8.42813 7.85C8.54484 7.73056 8.62977 7.58379 8.67519 7.42308C8.7206 7.26238 8.72505 7.09286 8.68812 6.93L7.31812 1C7.27977 0.834696 7.19998 0.681871 7.08627 0.555912C6.97256 0.429952 6.82866 0.335002 6.66813 0.28C6.43459 0.196589 6.19344 0.1363 5.94812 0.0999999C5.69538 0.0413952 5.43746 0.00789934 5.17812 0C3.95813 0 2.7881 0.484642 1.92543 1.34731C1.06277 2.20998 0.578125 3.38 0.578125 4.6C0.583417 8.68271 2.20761 12.5967 5.09453 15.4836C7.98144 18.3705 11.8954 19.9947 15.9781 20C16.5822 20 17.1804 19.881 17.7385 19.6498C18.2966 19.4187 18.8037 19.0798 19.2308 18.6527C19.658 18.2255 19.9968 17.7184 20.228 17.1603C20.4591 16.6022 20.5781 16.0041 20.5781 15.4C20.5784 15.1455 20.5584 14.8913 20.5181 14.64C20.4761 14.3916 20.4125 14.1474 20.3281 13.91V13.91ZM15.9781 18C12.425 17.9974 9.01823 16.5847 6.50582 14.0723C3.99341 11.5599 2.58077 8.15309 2.57812 4.6C2.58076 3.91125 2.85553 3.25146 3.34256 2.76443C3.82958 2.27741 4.48937 2.00263 5.17812 2H5.50812L6.57812 6.64L6.03813 6.92C5.17813 7.37 4.49813 7.73 4.85813 8.51C5.44435 10.1696 6.3929 11.6777 7.63486 12.9249C8.87682 14.172 10.381 15.1269 12.0381 15.72C12.8781 16.06 13.2081 15.43 13.6581 14.56L13.9481 14.01L18.5781 15.07V15.4C18.5755 16.0888 18.3007 16.7485 17.8137 17.2356C17.3267 17.7226 16.6669 17.9974 15.9781 18V18Z" fill="black"/>
</svg>
