<svg width="25" height="24" viewBox="0 0 25 24" fill="none" xmlns="http://www.w3.org/2000/svg">
<path d="M21.2881 19.29L17.8881 15.9C18.9851 14.5025 19.5803 12.7767 19.5781 11C19.5781 9.41775 19.1089 7.87103 18.2299 6.55544C17.3508 5.23985 16.1014 4.21447 14.6396 3.60897C13.1778 3.00347 11.5693 2.84504 10.0174 3.15372C8.46556 3.4624 7.04009 4.22433 5.92127 5.34315C4.80245 6.46197 4.04053 7.88743 3.73185 9.43928C3.42316 10.9911 3.58159 12.5997 4.18709 14.0615C4.79259 15.5233 5.81797 16.7727 7.13357 17.6518C8.44916 18.5308 9.99588 19 11.5781 19C13.3548 19.0022 15.0806 18.407 16.4781 17.31L19.8681 20.71C19.9611 20.8037 20.0717 20.8781 20.1936 20.9289C20.3154 20.9797 20.4461 21.0058 20.5781 21.0058C20.7101 21.0058 20.8408 20.9797 20.9627 20.9289C21.0846 20.8781 21.1952 20.8037 21.2881 20.71C21.3819 20.617 21.4563 20.5064 21.507 20.3846C21.5578 20.2627 21.5839 20.132 21.5839 20C21.5839 19.868 21.5578 19.7373 21.507 19.6154C21.4563 19.4936 21.3819 19.383 21.2881 19.29ZM5.57813 11C5.57813 9.81332 5.93002 8.65328 6.58931 7.66658C7.2486 6.67989 8.18567 5.91085 9.28203 5.45673C10.3784 5.0026 11.5848 4.88378 12.7487 5.11529C13.9126 5.3468 14.9817 5.91825 15.8208 6.75736C16.6599 7.59648 17.2313 8.66558 17.4628 9.82946C17.6944 10.9933 17.5755 12.1997 17.1214 13.2961C16.6673 14.3925 15.8982 15.3295 14.9116 15.9888C13.9249 16.6481 12.7648 17 11.5781 17C9.98683 17 8.46071 16.3679 7.33549 15.2426C6.21027 14.1174 5.57813 12.5913 5.57813 11Z" fill="#FCC01B"/>
</svg>
